<svg viewBox="0 0 500 500" xmlns="http://www.w3.org/2000/svg" xmlns:xlink="http://www.w3.org/1999/xlink" width="100%" id="blobSvg">
  <path id="blob" d="M397.5,277Q399,304,398.5,339Q398,374,369,390Q340,406,310.5,416Q281,426,247.5,441Q214,456,192,422Q170,388,151.5,368Q133,348,119.5,325Q106,302,84,276Q62,250,54.5,213Q47,176,79.5,155Q112,134,143.5,127.5Q175,121,198,104Q221,87,255,58Q289,29,322.5,47.5Q356,66,393.5,82Q431,98,400,152.5Q369,207,382.5,228.5Q396,250,397.5,277Z" fill="#0CB0A9"></path>
</svg>