<svg viewBox="0 0 500 500" xmlns="http://www.w3.org/2000/svg" xmlns:xlink="http://www.w3.org/1999/xlink" width="100%" id="blobSvg">
  <path id="blob" d="M416.5,280Q416,310,411.5,346Q407,382,377,400Q347,418,315,429Q283,440,247.5,452Q212,464,186.5,434Q161,404,139.5,382.5Q118,361,103,335Q88,309,69,279.5Q50,250,45,212Q40,174,70.5,149.5Q101,125,133,114Q165,103,191.5,87Q218,71,254,47.5Q290,24,325,41.5Q360,59,396.5,77.5Q433,96,412.5,147Q392,198,404.5,224Q417,250,416.5,280Z" fill="#0CB0A9"></path>
</svg>